ffmpeg version 2024-07-22-git-172da370e7-full_build-www.gyan.dev Copyright (c) 2000-2024 the FFmpeg developers
  built with gcc 13.2.0 (Rev5, Built by MSYS2 project)
  configuration: --enable-gpl --enable-version3 --enable-static --disable-w32threads --disable-autodetect --enable-fontconfig --enable-iconv --enable-gnutls --enable-libxml2 --enable-gmp --enable-bzlib --enable-lzma --enable-libsnappy --enable-zlib --enable-librist --enable-libsrt --enable-libssh --enable-libzmq --enable-avisynth --enable-libbluray --enable-libcaca --enable-sdl2 --enable-libaribb24 --enable-libaribcaption --enable-libdav1d --enable-libdavs2 --enable-libopenjpeg --enable-libquirc --enable-libuavs3d --enable-libxevd --enable-libzvbi --enable-libqrencode --enable-librav1e --enable-libsvtav1 --enable-libvvenc --enable-libwebp --enable-libx264 --enable-libx265 --enable-libxavs2 --enable-libxeve --enable-libxvid --enable-libaom --enable-libjxl --enable-libvpx --enable-mediafoundation --enable-libass --enable-frei0r --enable-libfreetype --enable-libfribidi --enable-libharfbuzz --enable-liblensfun --enable-libvidstab --enable-libvmaf --enable-libzimg --enable-amf --enable-cuda-llvm --enable-cuvid --enable-dxva2 --enable-d3d11va --enable-d3d12va --enable-ffnvcodec --enable-libvpl --enable-nvdec --enable-nvenc --enable-vaapi --enable-libshaderc --enable-vulkan --enable-libplacebo --enable-opencl --enable-libcdio --enable-libgme --enable-libmodplug --enable-libopenmpt --enable-libopencore-amrwb --enable-libmp3lame --enable-libshine --enable-libtheora --enable-libtwolame --enable-libvo-amrwbenc --enable-libcodec2 --enable-libilbc --enable-libgsm --enable-libopencore-amrnb --enable-libopus --enable-libspeex --enable-libvorbis --enable-ladspa --enable-libbs2b --enable-libflite --enable-libmysofa --enable-librubberband --enable-libsoxr --enable-chromaprint
  libavutil      59. 28.100 / 59. 28.100
  libavcodec     61. 10.100 / 61. 10.100
  libavformat    61.  5.101 / 61.  5.101
  libavdevice    61.  2.100 / 61.  2.100
  libavfilter    10.  2.102 / 10.  2.102
  libswscale      8.  2.100 /  8.  2.100
  libswresample   5.  2.100 /  5.  2.100
  libpostproc    58.  2.100 / 58.  2.100
Input #0, matroska,webm, from 'physics\2226059347_122_Calorimetry_02__Heating_Curve__Icewater_Mixture__Recorded.mkv':
  Metadata:
    ENCODER         : Lavf60.22.101
  Duration: 01:59:10.57, start: 0.000000, bitrate: 385 kb/s
  Stream #0:0: Video: h264 (High), yuv420p(tv, bt709, progressive), 640x360 [SAR 1:1 DAR 16:9], 30 fps, 30 tbr, 1k tbn
      Metadata:
        DURATION        : 01:59:10.566000000
  Stream #0:1(eng): Audio: aac (LC), 48000 Hz, stereo, fltp
      Metadata:
        DURATION        : 01:59:10.549000000
Stream mapping:
  Stream #0:0 -> #0:0 (copy)
  Stream #0:1 -> #0:1 (copy)
[segment @ 0000027ce0d06680] Opening 'Calorimetry\02\\output000.mkv' for writing
Output #0, segment, to 'Calorimetry\02\\output%03d.mkv':
  Metadata:
    encoder         : Lavf61.5.101
  Stream #0:0: Video: h264 (High), yuv420p(tv, bt709, progressive), 640x360 [SAR 1:1 DAR 16:9], q=2-31, 30 fps, 30 tbr, 1k tbn
      Metadata:
        DURATION        : 01:59:10.566000000
  Stream #0:1(eng): Audio: aac (LC), 48000 Hz, stereo, fltp
      Metadata:
        DURATION        : 01:59:10.549000000
Press [q] to stop, [?] for help
[segment @ 0000027ce0d06680] Opening 'Calorimetry\02\\output001.mkv' for writing
[segment @ 0000027ce0d06680] Opening 'Calorimetry\02\\output002.mkv' for writing
[segment @ 0000027ce0d06680] Opening 'Calorimetry\02\\output003.mkv' for writing
size=N/A time=00:17:34.83 bitrate=N/A speed=2.09e+03x    [segment @ 0000027ce0d06680] Opening 'Calorimetry\02\\output004.mkv' for writing
[segment @ 0000027ce0d06680] Opening 'Calorimetry\02\\output005.mkv' for writing
[segment @ 0000027ce0d06680] Opening 'Calorimetry\02\\output006.mkv' for writing
[segment @ 0000027ce0d06680] Opening 'Calorimetry\02\\output007.mkv' for writing
size=N/A time=00:36:22.42 bitrate=N/A speed=2.14e+03x    [segment @ 0000027ce0d06680] Opening 'Calorimetry\02\\output008.mkv' for writing
[segment @ 0000027ce0d06680] Opening 'Calorimetry\02\\output009.mkv' for writing
[segment @ 0000027ce0d06680] Opening 'Calorimetry\02\\output010.mkv' for writing
size=N/A time=00:54:43.47 bitrate=N/A speed=2.14e+03x    [segment @ 0000027ce0d06680] Opening 'Calorimetry\02\\output011.mkv' for writing
[segment @ 0000027ce0d06680] Opening 'Calorimetry\02\\output012.mkv' for writing
[segment @ 0000027ce0d06680] Opening 'Calorimetry\02\\output013.mkv' for writing
[segment @ 0000027ce0d06680] Opening 'Calorimetry\02\\output014.mkv' for writing
size=N/A time=01:13:11.00 bitrate=N/A speed=2.14e+03x    [segment @ 0000027ce0d06680] Opening 'Calorimetry\02\\output015.mkv' for writing
[segment @ 0000027ce0d06680] Opening 'Calorimetry\02\\output016.mkv' for writing
[segment @ 0000027ce0d06680] Opening 'Calorimetry\02\\output017.mkv' for writing
[segment @ 0000027ce0d06680] Opening 'Calorimetry\02\\output018.mkv' for writing
size=N/A time=01:31:15.53 bitrate=N/A speed=2.13e+03x    [segment @ 0000027ce0d06680] Opening 'Calorimetry\02\\output019.mkv' for writing
[segment @ 0000027ce0d06680] Opening 'Calorimetry\02\\output020.mkv' for writing
[segment @ 0000027ce0d06680] Opening 'Calorimetry\02\\output021.mkv' for writing
size=N/A time=01:46:54.90 bitrate=N/A speed=2.08e+03x    size=N/A time=01:49:37.66 bitrate=N/A speed=1.83e+03x    [segment @ 0000027ce0d06680] Opening 'Calorimetry\02\\output022.mkv' for writing
[segment @ 0000027ce0d06680] Opening 'Calorimetry\02\\output023.mkv' for writing
[out#0/segment @ 0000027ce0d0ea40] video:248683KiB audio:83796KiB subtitle:0KiB other streams:0KiB global headers:0KiB muxing overhead: unknown
size=N/A time=01:59:10.50 bitrate=N/A speed=1.82e+03x    
